<svg width="184" height="177" viewBox="0 0 184 177" fill="none" xmlns="http://www.w3.org/2000/svg">
<path d="M98.0652 96.4866C98.8588 96.0382 99.6366 95.5523 100.399 95.0289C101.122 94.4325 101.823 93.8011 102.5 93.1346C103.124 92.4013 103.719 91.6367 104.283 90.8408C104.781 89.987 105.243 89.1068 105.669 88.2004C106.017 87.2473 106.324 86.2742 106.588 85.281C106.766 84.2546 106.898 83.2154 106.984 82.1634C106.975 81.0935 106.918 80.0187 106.813 78.9392C106.608 77.8585 106.354 76.7815 106.05 75.7083C105.646 74.6514 105.193 73.6072 104.69 72.5755C104.089 71.5781 103.441 70.6021 102.745 69.6476C101.956 68.7447 101.124 67.8719 100.248 67.0292C99.2885 66.2547 98.2902 65.5182 97.253 64.8197C96.1446 64.2045 95.0041 63.6345 93.8314 63.1095C92.6024 62.6809 91.3493 62.3033 90.0723 61.9766C88.7561 61.7568 87.4251 61.5924 86.0793 61.4836C84.7138 61.4889 83.3435 61.5526 81.9685 61.6747C80.5946 61.915 79.2265 62.2148 77.8643 62.5741C76.5248 63.0521 75.2021 63.5887 73.8961 64.1841C72.6346 64.8947 71.4005 65.6614 70.1941 66.4842C69.0532 67.4149 67.9502 68.3972 66.885 69.4309C65.9054 70.5617 64.9731 71.7376 64.0882 72.9586C63.3067 74.2623 62.5809 75.6029 61.9109 76.9807C61.3597 78.4234 60.871 79.8937 60.445 81.3915C60.15 82.9339 59.9227 84.4931 59.7632 86.0692C59.7431 87.6674 59.7941 89.2707 59.916 90.8792C60.1817 92.4859 60.5196 94.0855 60.9296 95.6781C61.4833 97.2441 62.108 98.7905 62.8038 100.318C63.6389 101.793 64.5415 103.237 65.5119 104.649C66.6125 105.986 67.7751 107.279 68.9998 108.529C70.3413 109.682 71.7372 110.78 73.1875 111.824C74.7372 112.75 76.3316 113.612 77.9706 114.411C79.688 115.075 81.4388 115.668 83.2228 116.19C85.0611 116.563 86.9199 116.859 88.7993 117.078C90.7062 117.14 92.62 117.12 94.5405 117.021C96.4603 116.759 98.3725 116.415 100.277 115.99C102.152 115.402 104.004 114.734 105.834 113.985C107.606 113.079 109.34 112.097 111.039 111.038C112.65 109.833 114.21 108.556 115.721 107.21C117.118 105.732 118.452 104.192 119.724 102.59C120.858 100.876 121.919 99.1105 122.906 97.2945C123.736 95.3891 124.484 93.4456 125.148 91.4639C125.64 89.4196 126.043 87.3513 126.355 85.259C126.485 83.1336 126.52 80.9994 126.462 78.8564C126.214 76.7117 125.872 74.5741 125.434 72.4436C124.807 70.3436 124.086 68.2669 123.271 66.2134C122.273 64.2226 121.185 62.2709 120.008 60.3583C118.659 58.5393 117.228 56.7747 115.714 55.0642C114.045 53.4764 112.303 51.9566 110.489 50.505C108.542 49.202 106.535 47.9792 104.467 46.8366C102.294 45.865 100.074 44.9835 97.8084 44.1921C95.4672 43.5893 93.0963 43.0842 90.6957 42.6767C88.253 42.4701 85.7981 42.3659 83.3309 42.3641C80.8574 42.5697 78.3899 42.8795 75.9283 43.2935C73.4972 43.9153 71.0905 44.6399 68.7083 45.4674C66.3933 46.4968 64.121 47.6247 61.8913 48.8509C59.7644 50.267 57.6975 51.774 55.6905 53.3718C53.8197 55.1416 52.0247 56.9916 50.3056 58.9221C48.7528 61.0008 47.2897 63.1468 45.9165 65.36C44.7352 67.6929 43.6554 70.0776 42.677 72.5141C41.911 75.0373 41.2553 77.5951 40.7099 80.1873C40.3915 82.8301 40.189 85.4885 40.1025 88.1628C40.2512 90.849 40.5181 93.5313 40.9034 96.2097C41.5249 98.8603 42.2637 101.487 43.1195 104.09C44.2059 106.625 45.4048 109.117 46.7161 111.566C48.245 113.908 49.8782 116.188 51.6158 118.406C53.5513 120.481 55.5796 122.477 57.7008 124.393C59.9939 126.134 62.3655 127.78 64.8154 129.332C67.4056 130.68 70.0571 131.92 72.7698 133.053C75.5863 133.96 78.4447 134.75 81.3452 135.422C84.309 135.852 87.2938 136.157 90.2997 136.339C93.3259 136.27 96.3512 136.073 99.3755 135.749C102.376 135.172 105.352 134.468 108.306 133.639C111.19 132.561 114.029 131.361 116.823 130.04C119.504 128.484 122.118 126.814 124.666 125.031C127.061 123.033 129.369 120.933 131.59 118.732C133.621 116.343 135.549 113.867 137.372 111.305C138.973 108.588 140.455 105.802 141.819 102.948C142.934 99.9769 143.919 96.9578 144.774 93.8907C145.361 90.7492 145.81 87.5817 146.122 84.3883C146.153 81.166 146.043 77.941 145.792 74.7133C145.257 71.504 144.581 68.3159 143.764 65.1488C142.668 62.0477 141.435 58.9913 140.066 55.9795C138.431 53.0802 136.669 50.2482 134.778 47.4836C132.643 44.8753 130.393 42.3555 128.027 39.9241C125.447 37.6891 122.767 35.5614 119.988 33.541C117.029 31.7519 113.991 30.0861 110.873 28.5436C107.618 27.261 104.305 26.1143 100.934 25.1035C97.473 24.3741 93.9784 23.7894 90.4506 23.3493C86.8818 23.2041 83.3055 23.2082 79.7216 23.3616C76.1489 23.815 72.595 24.4179 69.0599 25.1703C65.5886 26.2189 62.1622 27.4129 58.7809 28.7523C55.5151 30.3751 52.3195 32.1349 49.1942 34.0316C46.2336 36.1904 43.3668 38.4735 40.594 40.8808C38.0308 43.5208 35.5828 46.2685 33.2499 49.1238C31.1663 52.1751 29.216 55.314 27.399 58.5405C25.864 61.9199 24.4769 65.3639 23.2377 68.8725C22.3055 72.4856 21.5316 76.1382 20.9158 79.8301C20.6235 83.5744 20.4953 87.3312 20.5311 91.1007C20.8974 94.8678 21.4288 98.62 22.1255 102.357C23.1499 106.037 24.3358 109.674 25.6831 113.268C27.3458 116.75 29.1614 120.163 31.1298 123.507C33.3917 126.686 35.7933 129.771 38.3344 132.762C41.1382 135.54 44.0641 138.201 47.112 140.745C50.3835 143.035 53.7556 145.188 57.2283 147.204C60.8783 148.929 64.6042 150.503 68.406 151.923C72.3328 153.026 76.3082 153.965 80.3322 154.74C84.4245 155.178 88.5362 155.445 92.6674 155.542C96.8073 155.293 100.937 154.871 105.055 154.276C109.122 153.337 113.147 152.228 117.132 150.949C121.004 149.338 124.806 147.564 128.538 145.629C132.1 143.383 135.564 140.988 138.929 138.444C142.072 135.619 145.09 132.664 147.985 129.577C150.61 126.249 153.088 122.812 155.421 119.266C157.443 115.525 159.301 111.701 160.995 107.792C162.347 103.743 163.521 99.6375 164.518 95.4764C165.151 91.2331 165.597 86.964 165.858 82.6691" stroke="#05386B" stroke-width="2.3"/>
</svg>
